<?xml version="1.0" encoding="utf-8"?>
<!-- Generator: Adobe Illustrator 25.2.1, SVG Export Plug-In . SVG Version: 6.00 Build 0)  -->
<svg version="1.1" id="Layer_1" xmlns="http://www.w3.org/2000/svg" xmlns:xlink="http://www.w3.org/1999/xlink" x="0px" y="0px"
	 viewBox="0 0 512 512" style="enable-background:new 0 0 512 512;" xml:space="preserve">
<style type="text/css">
	.st0{fill:#010101;}
	.st1{fill:none;stroke:#000000;stroke-width:6;stroke-miterlimit:10;}
	.st2{fill:none;}
	.st3{font-family:'HelveticaNeue-Thin';}
	.st4{font-size:188.3132px;}
</style>
<g>
	<g transform="translate(0.000000,494.000000) scale(0.100000,-0.100000)">
		<path class="st0" d="M909.69,4566.54c-48.67-43.66-79.99-81.82-114.26-138.26c-40.64-66.71-62.56-124.78-77.42-200.9l-10.86-57.74
			l-40.56-15.89c-235.23-91.31-379.81-316.71-370.72-577.66c4.15-119.75,53.49-251.04,126.16-336.94
			c156.68-184.21,391.51-255.62,627.47-190.93c31.48,8.94,64.61,14.44,78.82,13.4c29.86-1.7,65.26-17.3,86.76-38.48
			c9.07-8.84,66.3-80.39,127.88-158.71c279.83-358.38,259.21-333.29,285.15-348.19c97.37-57.61,311.3-26.24,514.46,75.48
			c259.71,129.59,489.06,400.43,472.92,558.14c-3.17,29.56,7.15,9.09-197.04,402.52c-46.79,89.53-88.16,172.38-92.43,184.31
			c-10.57,28.75-9.78,67.04,1.09,94.9c4.97,13.35,23.75,41.2,44.97,66.1c71.1,85.16,113.38,172.09,133.77,278.26
			c64.9,331.03-148.87,633.14-484.35,685.61c-186.31,29.25-362.22-26.19-495.57-155.83l-30.53-29.77l-62.4,14.63
			c-124.57,28.86-239.49,21.59-356.77-23.26C1027.87,4648.64,945.67,4599.23,909.69,4566.54z M1139.67,4603.68
			c106.28,33.87,221.95,30.3,328.96-9.83c27.09-9.67,51.32-16.68,53.72-15.14c2.79,1.79,12.87,13.33,22.43,25.69
			c44.53,56.25,126.95,117.64,196.81,146.73c193.7,80.42,414.21,33.09,559.17-119.75c33.75-35.86,82.48-111.72,101.05-157.33
			c71.59-177.35,38.14-372.01-89.57-518.32c-36.11-41.25-44.65-55.18-57.89-90.78c-17.67-48.01-20.43-101.7-7.82-149.43
			c4.11-14.29,47.22-103.36,108.76-222.88c88.45-171.08,101.79-199.74,98.86-208.39c-7.46-20.02-70.37-111.75-110.71-161.36
			c-74.64-91.93-155.65-164.28-259.47-230.96c-103.82-66.68-205.96-111.4-319.14-140.67c-63.2-15.77-190.07-36.92-198.56-33.33
			c-2.47,1.24-66.41,81.44-142.31,177.65c-82.45,105.53-145.28,181.4-156.55,191.06c-37.26,30.78-89.17,51.03-139.13,55.05
			c-36.56,2.46-57.8-0.46-107.68-15.01c-83.36-24.77-167.94-28.33-251.63-10.44c-104.04,22.28-193.32,74.37-265.67,155.37
			c-37.85,42.24-90.4,133.73-105.45,184.4c-50.1,165.8-18.79,333.14,86.94,465.33c65.66,82.22,169.22,149.3,266.12,173.19
			c15.21,3.55,30.29,8.18,32.69,9.72c2.79,1.79,6.36,26.08,8.3,53.83c8.7,131.38,69,255.27,166.18,341.96
			c6.02,5.57,40.5,28.28,77.35,50.8C1088.09,4582.98,1110.14,4594.32,1139.67,4603.68z M1683.17,2649.16
			c105.88,17.8,224.76,55.81,326.55,103.7c53.61,25.42,187.38,111.34,231.61,148.76c86.83,73.82,169.89,164.95,230.51,254.09
			c16.35,24.61,31.05,44.77,31.97,44.21c7.22-1.57,29.79-60.41,29.12-76.06c-3.35-72.09-106.29-218.3-228.82-325.21
			c-51.86-45.71-163.68-117.53-226.82-145.68c-162.27-73.19-359.33-104.46-406.57-64.28c-14.29,11.7-44.33,48.8-41.51,50.61
			C1629.96,2639.8,1654.67,2644.39,1683.17,2649.16z"/>
		<path class="st0" d="M1019.33,4418.67c-44.7-42.82-96.62-123.55-101-156.25c-4.7-35.73,30.34-57.78,60.3-38.54
			c7.59,4.87,16.71,15.24,19.48,23.23c18.27,44.45,61.06,99,103.37,132.39c50.43,39.17,124.42,63.57,190.1,62.32
			c38.29-0.79,62.02,16.72,59.07,44.15c-3.21,35.72-25.84,43.77-100.36,35.95c-72.8-7.83-115.59-22.91-171.64-59.47
			C1054.57,4446.37,1027.63,4426.83,1019.33,4418.67z"/>
		<path class="st0" d="M685.13,3928.2c-39.8-32.89-69.61-67.26-96.01-109.6c-41-65.27-57.76-121.7-59.79-201.98
			c-0.84-33.81,11.52-104.86,21.01-119.64c8.97-13.97,33.07-21.64,49.1-15.84c22.8,8.43,30.65,28.7,22.57,57.93
			c-11.61,44.43-12.23,93.68-1.39,141.81c17.68,79.62,59.76,138.8,140.72,199.81c40.13,29.72,42.96,33.25,45.34,48.85
			c3.02,21.67-8.16,38.19-29.12,44.46c-14.14,4.46-19.56,3.22-42.45-10.33C720.86,3955.09,698.21,3939.42,685.13,3928.2z"/>
		<path class="st0" d="M1377.08,3166.12c-2.27-10.5-1.57-23,1.51-27.8c8.72-13.57,224.57-271.47,231.73-276.47
			c3.24-2.43,12.03-4.7,19.27-4.56c34.21-0.58,54.16,34.23,35.95,62.58c-8.46,13.18-191.35,234.7-217.2,262.66
			C1423.14,3210.36,1384.81,3201.53,1377.08,3166.12z"/>
		<path class="st0" d="M2081.02,3621.05c-1.86-8.52-0.38-22.24,3.03-30.21c14.67-35.13,140.07-293.59,148.53-306.76
			c20-31.15,64.65-23.35,72.88,12.98c1.73,9.59,2.68,18.66,1.67,20.24c-1.03,1.61-34.85,71.82-74.62,155.7
			c-40.02,84.28-75.38,156.89-78.72,162.08c-3.33,5.19-14.68,11.45-25.18,13.72C2104.36,3654.08,2085.86,3643.36,2081.02,3621.05z"
			/>
		<path class="st0" d="M1668.23,3253.82l-3.83-16l99.77-155.33l99.77-155.33l15.88-2.76c21.78-4.06,42.54,9.27,47.93,30.78
			l4.09,15.59l-99.77,155.33l-99.77,155.33l-16.14,3.18c-10.74,2.7-20.38,1.01-30.37-5.4
			C1675.78,3272.78,1670.24,3264.71,1668.23,3253.82z"/>
		<path class="st0" d="M1879.87,3389.75l-3.83-16l99.77-155.33l99.77-155.33l15.88-2.76c23.5-4.08,44.4,9.91,47.29,32.64l2.67,16.94
			l-98.75,153.75l-98.75,153.75l-16.15,3.18c-10.77,2.69-20.38,1.01-30.37-5.4C1887.42,3408.71,1881.9,3400.66,1879.87,3389.75z"/>
	</g>
</g>
<ellipse class="st1" cx="311.34" cy="348.5" rx="148.44" ry="151.33"/>
<rect x="187.6" y="276.83" class="st2" width="251.98" height="161.85"/>
<text transform="matrix(1 0 0 1 187.604 411.2812)" class="st3 st4">RC</text>
</svg>
